<?xml version="1.0" standalone="no"?>
<!DOCTYPE svg PUBLIC "-//W3C//DTD SVG 20010904//EN"
 "http://www.w3.org/TR/2001/REC-SVG-20010904/DTD/svg10.dtd">
<svg version="1.0" xmlns="http://www.w3.org/2000/svg"
 width="512.000000pt" height="512.000000pt" viewBox="0 0 512.000000 512.000000"
 preserveAspectRatio="xMidYMid meet">

<g transform="translate(0.000000,512.000000) scale(0.100000,-0.100000)"
fill="#000000" stroke="none">
<path d="M4575 4721 c-99 -33 -1102 -364 -2230 -736 -1127 -371 -2082 -686
-2122 -701 -90 -32 -152 -86 -190 -162 -38 -77 -39 -193 -4 -262 29 -57 85
-116 133 -141 20 -10 283 -127 584 -259 301 -132 548 -241 550 -243 2 -2 80
-358 173 -791 94 -433 178 -804 188 -824 38 -78 129 -104 208 -59 22 13 230
166 462 340 l422 316 488 -399 c268 -220 510 -411 537 -426 64 -35 152 -43
231 -19 81 23 173 114 198 195 9 30 220 919 468 1975 495 2107 469 1977 416
2081 -54 105 -144 164 -262 171 -64 3 -85 -1 -250 -56z m240 -268 c-4 -16
-207 -878 -451 -1917 -244 -1039 -446 -1892 -449 -1894 -3 -3 -13 2 -22 10
-10 8 -355 291 -768 628 -412 337 -754 616 -758 620 -4 4 344 375 775 825 431
450 793 834 805 854 15 24 23 52 23 82 0 40 -6 53 -38 89 -36 41 -42 44 -98
47 l-59 4 -1177 -654 -1176 -654 -562 245 c-308 135 -557 249 -552 254 8 8
4478 1486 4501 1487 10 1 11 -6 6 -26z m-1805 -1427 c0 -2 -223 -238 -496
-523 -273 -285 -503 -531 -510 -548 -7 -16 -53 -167 -100 -335 -48 -168 -90
-308 -94 -313 -6 -7 -202 883 -204 926 -1 13 169 112 699 407 385 214 701 390
703 390 1 0 2 -2 2 -4z m-632 -1524 c68 -55 123 -103 123 -107 0 -10 -436
-335 -439 -327 -1 4 25 102 58 217 108 374 99 349 118 332 9 -8 72 -59 140
-115z"/>
</g>
</svg>
