<?xml version="1.0" standalone="no"?>
<!DOCTYPE svg PUBLIC "-//W3C//DTD SVG 20010904//EN"
 "http://www.w3.org/TR/2001/REC-SVG-20010904/DTD/svg10.dtd">
<svg version="1.0" xmlns="http://www.w3.org/2000/svg"
 width="512.000000pt" height="512.000000pt" viewBox="0 0 512.000000 512.000000"
 preserveAspectRatio="xMidYMid meet">

<g transform="translate(0.000000,512.000000) scale(0.100000,-0.100000)"
fill="#000000" stroke="none">
<path d="M4730 4766 c-30 -13 -158 -75 -285 -138 -126 -63 -258 -128 -292
-143 l-63 -28 -69 31 c-390 174 -872 86 -1184 -217 -245 -237 -377 -542 -394
-909 l-6 -133 -46 6 c-717 95 -1314 502 -1678 1145 -48 83 -82 112 -142 118
-64 6 -103 -10 -141 -58 -43 -54 -107 -177 -135 -260 -28 -82 -55 -249 -55
-336 1 -126 42 -317 94 -431 15 -31 24 -58 22 -60 -2 -3 -43 7 -89 21 -101 31
-140 32 -187 7 -37 -19 -80 -88 -80 -127 0 -13 9 -63 20 -111 87 -371 302
-657 637 -848 l75 -43 -53 -15 c-30 -9 -74 -21 -98 -27 -60 -16 -83 -33 -109
-79 -53 -95 -16 -165 167 -310 203 -161 448 -284 729 -365 62 -18 113 -36 113
-40 0 -13 -110 -85 -200 -131 -110 -56 -242 -99 -385 -126 -90 -17 -162 -22
-381 -26 -308 -5 -339 -10 -380 -71 -30 -44 -33 -107 -9 -158 18 -38 105 -110
201 -168 262 -157 803 -315 1268 -370 670 -80 1304 -7 1795 207 279 122 488
266 707 488 433 442 685 939 780 1539 25 161 25 560 -1 748 l-18 132 123 196
c67 108 126 211 132 229 22 72 -18 149 -94 179 -35 14 -55 15 -141 6 -55 -5
-118 -10 -139 -10 l-39 0 125 250 c68 137 127 266 130 287 9 57 -27 122 -85
151 -55 27 -71 27 -140 -2z m-270 -481 c0 -2 -38 -81 -85 -176 -91 -184 -99
-216 -67 -279 9 -19 32 -45 51 -57 37 -25 97 -29 239 -14 39 4 72 5 72 2 0 -3
-26 -47 -57 -100 -55 -90 -58 -98 -58 -160 0 -36 9 -133 19 -216 22 -171 25
-445 7 -590 -67 -533 -293 -994 -688 -1406 -222 -231 -475 -392 -784 -498
-598 -204 -1428 -200 -2139 13 -63 19 -108 36 -100 39 8 3 49 11 90 17 197 31
434 123 602 232 155 102 375 301 398 363 27 70 -1 149 -67 187 -17 11 -83 28
-147 39 -218 37 -433 103 -611 188 -94 45 -215 116 -215 126 0 3 29 18 65 34
109 50 235 131 256 165 25 41 25 121 0 159 -27 42 -50 54 -168 93 -243 81
-397 176 -537 332 -62 70 -156 212 -156 237 0 6 54 10 148 10 93 0 160 5 183
13 74 26 119 107 100 180 -6 22 -38 72 -71 113 -68 83 -140 221 -167 319 -21
76 -26 341 -7 360 8 8 29 -13 76 -77 442 -595 1105 -957 1861 -1014 137 -10
141 -10 185 13 64 33 85 75 78 158 -24 282 -17 401 31 555 126 399 451 641
837 622 131 -6 213 -29 336 -94 111 -58 125 -57 321 40 151 74 169 82 169 72z"/>
</g>
</svg>
