<?xml version="1.0" standalone="no"?>
<!DOCTYPE svg PUBLIC "-//W3C//DTD SVG 20010904//EN"
 "http://www.w3.org/TR/2001/REC-SVG-20010904/DTD/svg10.dtd">
<svg version="1.0" xmlns="http://www.w3.org/2000/svg"
 width="512.000000pt" height="512.000000pt" viewBox="0 0 512.000000 512.000000"
 preserveAspectRatio="xMidYMid meet">

<g transform="translate(0.000000,512.000000) scale(0.100000,-0.100000)"
fill="#000000" stroke="none">
<path d="M490 5104 c-232 -49 -426 -246 -475 -479 -22 -105 -22 -4025 0 -4130
38 -180 163 -344 326 -424 149 -73 101 -71 1263 -71 l1038 0 39 22 c25 14 46
37 59 63 20 41 20 57 18 998 -3 954 -3 956 -24 984 -12 15 -36 37 -55 48 -31
19 -55 20 -321 23 l-288 3 0 215 0 214 294 0 c424 0 396 -33 396 465 0 395 6
441 67 565 50 103 160 213 263 263 120 59 176 67 503 67 l287 0 0 -215 0 -215
-275 0 c-300 0 -317 -3 -367 -56 -15 -16 -32 -42 -37 -57 -7 -18 -11 -151 -11
-365 0 -376 1 -384 69 -429 33 -23 39 -23 327 -23 l294 0 0 -214 0 -215 -287
-3 c-267 -3 -291 -4 -322 -23 -19 -11 -43 -33 -55 -48 -21 -28 -21 -30 -24
-989 l-2 -960 21 -38 c12 -21 38 -47 59 -59 37 -21 45 -21 661 -21 702 0 705
1 848 71 163 80 288 244 326 424 22 105 22 4025 0 4130 -49 236 -244 431 -480
480 -102 21 -4035 21 -4135 -1z m4060 -294 c139 -26 234 -121 260 -259 14 -74
14 -3908 0 -3982 -26 -138 -121 -233 -260 -259 -31 -6 -262 -10 -556 -10
l-504 0 0 764 0 765 293 3 c335 3 343 5 385 88 23 45 23 46 20 447 l-3 401
-31 39 c-17 21 -46 43 -65 50 -23 8 -125 12 -316 12 l-283 1 0 165 0 165 291
0 c326 0 340 2 381 69 23 36 23 37 23 448 0 402 0 412 -21 440 -11 15 -36 38
-55 51 l-34 23 -435 -3 -435 -4 -88 -27 c-321 -100 -536 -318 -630 -642 -18
-62 -21 -105 -25 -377 l-4 -308 -284 0 c-319 0 -332 -2 -380 -66 l-29 -37 -3
-401 c-4 -567 -32 -529 406 -534 l292 -3 0 -765 0 -764 -919 0 c-581 0 -938 4
-972 10 -138 26 -233 121 -259 260 -14 73 -14 3908 0 3981 26 134 122 233 252
258 63 13 3923 13 3988 1z"/>
</g>
</svg>
