<?xml version="1.0" standalone="no"?>
<!DOCTYPE svg PUBLIC "-//W3C//DTD SVG 20010904//EN"
 "http://www.w3.org/TR/2001/REC-SVG-20010904/DTD/svg10.dtd">
<svg version="1.0" xmlns="http://www.w3.org/2000/svg"
 width="512.000000pt" height="512.000000pt" viewBox="0 0 512.000000 512.000000"
 preserveAspectRatio="xMidYMid meet">

<g transform="translate(0.000000,512.000000) scale(0.100000,-0.100000)"
fill="#000000" stroke="none">
<path d="M1434 5110 c-754 -80 -1344 -674 -1424 -1432 -13 -123 -13 -2113 0
-2236 81 -764 668 -1351 1432 -1432 123 -13 2113 -13 2236 0 764 81 1351 668
1432 1432 13 123 13 2113 0 2236 -81 764 -668 1351 -1432 1432 -109 11 -2136
11 -2244 0z m2316 -494 c225 -54 406 -153 560 -306 157 -158 258 -346 307
-570 17 -79 18 -158 18 -1180 0 -1022 -1 -1101 -18 -1180 -49 -224 -150 -412
-307 -570 -158 -157 -346 -258 -570 -307 -79 -17 -158 -18 -1180 -18 -1022 0
-1101 1 -1180 18 -224 49 -412 150 -570 307 -157 158 -258 346 -307 570 -17
79 -18 158 -18 1180 0 1022 1 1101 18 1180 74 344 290 625 597 780 115 57 208
85 380 113 14 3 513 4 1110 3 1005 -2 1090 -3 1160 -20z"/>
<path d="M3890 4097 c-78 -26 -120 -83 -120 -163 0 -93 71 -164 164 -164 82 0
145 48 165 125 32 126 -88 242 -209 202z"/>
<path d="M2396 3829 c-483 -67 -895 -404 -1046 -857 -50 -152 -64 -242 -64
-412 0 -171 14 -260 65 -415 121 -362 433 -673 797 -795 152 -50 242 -64 412
-64 170 0 260 14 412 64 364 122 676 433 797 795 51 155 65 244 65 415 0 111
-5 179 -17 240 -57 271 -178 492 -371 678 -182 175 -391 286 -641 337 -96 20
-314 28 -409 14z m389 -504 c392 -115 640 -520 559 -913 -67 -328 -308 -569
-636 -636 -251 -52 -524 33 -711 221 -372 372 -293 981 164 1254 180 108 415
136 624 74z"/>
</g>
</svg>
