<?xml version="1.0" standalone="no"?>
<!DOCTYPE svg PUBLIC "-//W3C//DTD SVG 20010904//EN"
 "http://www.w3.org/TR/2001/REC-SVG-20010904/DTD/svg10.dtd">
<svg version="1.0" xmlns="http://www.w3.org/2000/svg"
 width="512.000000pt" height="512.000000pt" viewBox="0 0 512.000000 512.000000"
 preserveAspectRatio="xMidYMid meet">

<g transform="translate(0.000000,512.000000) scale(0.100000,-0.100000)"
fill="#000000" stroke="none">
<path d="M4628 4895 c-26 -9 -66 -33 -91 -58 -25 -23 -231 -285 -458 -582
-226 -297 -413 -541 -414 -542 -1 -2 -71 49 -156 113 -85 64 -176 127 -204
140 -126 60 -278 6 -341 -121 -23 -47 -26 -65 -23 -127 7 -125 17 -136 338
-377 153 -115 297 -219 320 -230 101 -52 211 -33 297 52 71 71 1032 1331 1057
1386 41 93 7 227 -75 296 -67 56 -167 76 -250 50z"/>
<path d="M2435 4827 c-49 -19 -99 -53 -121 -84 -52 -70 -49 -16 -54 -973 l-5
-895 -890 -5 c-855 -5 -892 -6 -929 -24 -92 -46 -145 -131 -146 -234 0 -101
43 -180 128 -229 l47 -28 895 -5 895 -5 5 -895 5 -895 28 -48 c31 -52 88 -99
144 -118 45 -15 159 -7 198 14 47 24 96 78 121 132 l24 50 0 882 0 883 898 2
897 3 36 22 c193 121 182 381 -21 472 -44 20 -62 21 -927 21 l-883 0 -2 893
-3 892 -22 40 c-62 115 -206 175 -318 132z"/>
<path d="M347 1956 c-112 -31 -185 -118 -194 -230 -10 -117 -2 -130 266 -398
l235 -238 -231 -232 c-127 -128 -239 -249 -248 -268 -10 -19 -20 -64 -23 -100
-6 -82 22 -153 80 -206 54 -48 101 -67 173 -68 110 -1 118 5 375 260 130 129
240 234 245 234 5 0 115 -105 245 -234 227 -226 237 -235 295 -251 49 -15 69
-16 116 -7 101 19 185 93 210 186 14 52 6 143 -16 187 -10 19 -121 139 -248
267 l-232 232 232 233 c127 127 239 247 248 266 23 45 30 135 16 188 -28 104
-139 186 -249 186 -106 0 -133 -19 -387 -273 l-230 -230 -230 230 c-238 238
-269 261 -360 274 -22 3 -62 -1 -88 -8z"/>
</g>
</svg>
