<?xml version="1.0" standalone="no"?>
<!DOCTYPE svg PUBLIC "-//W3C//DTD SVG 20010904//EN"
 "http://www.w3.org/TR/2001/REC-SVG-20010904/DTD/svg10.dtd">
<svg version="1.0" xmlns="http://www.w3.org/2000/svg"
 width="512.000000pt" height="512.000000pt" viewBox="0 0 512.000000 512.000000"
 preserveAspectRatio="xMidYMid meet">

<g transform="translate(0.000000,512.000000) scale(0.100000,-0.100000)"
fill="#000000" stroke="none">
<path d="M2495 4786 c-37 -17 -70 -52 -84 -89 -6 -16 -11 -103 -11 -203 l0
-174 -732 0 c-693 0 -735 -1 -774 -19 -23 -10 -52 -34 -65 -52 l-24 -34 -3
-362 -3 -363 -27 -6 c-15 -4 -63 -25 -107 -48 -114 -58 -217 -162 -272 -276
-54 -111 -68 -173 -67 -295 1 -84 5 -114 30 -185 67 -193 210 -336 404 -404
76 -27 97 -30 200 -30 99 0 126 4 194 27 132 46 218 106 303 212 267 334 128
833 -274 986 l-63 24 0 253 0 252 640 0 640 0 0 -1324 0 -1324 -230 -398
c-127 -220 -235 -415 -242 -436 -23 -76 25 -167 100 -188 25 -8 209 -10 554
-8 504 3 517 4 544 24 44 32 66 68 71 116 6 55 13 43 -261 517 l-216 373 0
1324 0 1324 640 0 640 0 0 -255 c0 -212 -2 -255 -14 -255 -8 0 -56 -21 -107
-46 -420 -211 -478 -769 -110 -1064 118 -95 236 -135 396 -134 93 0 122 4 190
28 198 68 340 210 409 406 25 71 29 101 30 185 1 121 -13 184 -65 291 -69 141
-198 259 -346 315 l-62 24 -3 360 -3 360 -24 34 c-13 18 -42 42 -65 52 -39 18
-81 19 -773 19 l-732 0 -3 189 c-3 207 -6 216 -70 264 -34 25 -113 32 -153 13z
m-1420 -1613 c70 -23 155 -109 181 -183 55 -162 -14 -328 -165 -398 -79 -37
-183 -37 -262 0 -117 54 -183 158 -183 288 0 90 22 147 84 214 88 95 206 122
345 79z m3197 0 c64 -20 140 -90 175 -161 56 -114 29 -265 -62 -357 -121 -120
-329 -120 -450 0 -115 116 -120 311 -9 434 89 99 207 128 346 84z m-1607
-2363 l95 -165 -100 -3 c-55 -1 -145 -1 -200 0 l-100 3 97 168 c54 92 101 166
105 165 5 -2 51 -77 103 -168z"/>
</g>
</svg>
