<?xml version="1.0" standalone="no"?>
<!DOCTYPE svg PUBLIC "-//W3C//DTD SVG 20010904//EN"
 "http://www.w3.org/TR/2001/REC-SVG-20010904/DTD/svg10.dtd">
<svg version="1.0" xmlns="http://www.w3.org/2000/svg"
 width="512.000000pt" height="512.000000pt" viewBox="0 0 512.000000 512.000000"
 preserveAspectRatio="xMidYMid meet">

<g transform="translate(0.000000,512.000000) scale(0.100000,-0.100000)"
fill="#000000" stroke="none">
<path d="M2393 4945 c-201 -36 -383 -134 -524 -283 -178 -185 -269 -417 -269
-683 l0 -99 -198 0 c-217 0 -276 -9 -366 -58 -104 -55 -201 -178 -235 -297
-12 -40 -141 -2667 -141 -2860 0 -55 6 -123 14 -151 44 -167 193 -307 364
-343 75 -16 2969 -16 3044 0 172 36 319 174 364 343 8 28 14 96 14 151 0 193
-129 2820 -141 2860 -34 119 -131 242 -235 297 -90 49 -150 58 -365 58 l-196
0 -6 138 c-8 208 -54 356 -162 517 -206 310 -596 476 -962 410z m302 -320
c181 -38 349 -168 433 -335 51 -102 72 -193 72 -317 l0 -93 -640 0 -640 0 0
93 c1 197 61 349 189 478 156 155 370 219 586 174z m1208 -1069 c46 -17 74
-40 94 -80 12 -24 28 -287 80 -1380 35 -743 62 -1389 61 -1436 -3 -99 -19
-128 -84 -160 -40 -20 -57 -20 -1494 -20 -1437 0 -1454 0 -1494 20 -66 33 -81
61 -84 165 -1 50 26 693 61 1431 71 1481 63 1391 136 1436 l36 23 1040 5 c572
3 1168 6 1325 7 219 2 294 -1 323 -11z"/>
<path d="M1692 3200 c-78 -48 -90 -124 -42 -272 48 -149 109 -247 230 -369
141 -142 262 -212 455 -264 95 -25 293 -31 398 -11 309 59 558 245 696 522 50
100 85 224 78 280 -9 80 -72 134 -157 134 -83 0 -138 -46 -160 -135 -45 -178
-163 -336 -313 -419 -197 -109 -441 -108 -635 4 -75 44 -181 148 -225 221 -21
35 -51 107 -68 160 -30 96 -53 131 -106 158 -35 18 -114 13 -151 -9z"/>
</g>
</svg>
