<svg xmlns="http://www.w3.org/2000/svg" version="1.1" xmlns:xlink="http://www.w3.org/1999/xlink" xmlns:svgjs="http://svgjs.com/svgjs" width="1440" height="560" preserveAspectRatio="none" viewBox="0 0 1440 560">
    <g mask="url(&quot;#SvgjsMask1008&quot;)" fill="none">
        <rect width="1440" height="560" x="0" y="0" fill="#0e2a47"></rect>
        <path d="M3.08 430.5 a28.42 28.42 0 1 0 56.84 0 a28.42 28.42 0 1 0 -56.84 0z" fill="#e73635"></path>
        <path d="M935.11 317.75L963.81 317.75L963.81 346.45L935.11 346.45z" stroke="#d3b714"></path>
        <path d="M1081.99 429.12L1124.78 429.12L1124.78 451.46L1081.99 451.46z" fill="#e73635"></path>
        <path d="M852.53 55.14a40.31 40.31 0 1 0-80.55 3.27z" stroke="#e73635"></path>
        <path d="M601.07 263.39a46.4 46.4 0 1 0-49.93 78.23z" stroke="#e73635"></path>
        <path d="M114.41 386.82a38.18 38.18 0 1 0-13.58 75.14z" stroke="#e73635"></path>
        <path d="M1297.1 147.68a1.5 1.5 0 1 0 1.67 2.49z" fill="#e73635"></path>
        <path d="M380.39 457.14L388.85 457.14L388.85 474.93L380.39 474.93z" fill="#037b0b"></path>
        <path d="M881.06 543.24a33.95 33.95 0 1 0-59.08-33.47z" stroke="#037b0b"></path>
        <path d="M1113.22 504.17 a24.42 24.42 0 1 0 48.84 0 a24.42 24.42 0 1 0 -48.84 0z" stroke="#037b0b"></path>
        <path d="M347.55 40.83 a5.5 5.5 0 1 0 11 0 a5.5 5.5 0 1 0 -11 0z" fill="#037b0b"></path>
        <path d="M19.53 371.29L25.96 371.29L25.96 394.36L19.53 394.36z" fill="#e73635"></path>
        <path d="M527.8 248.38L549.86 248.38L549.86 270.44L527.8 270.44z" fill="#e73635"></path>
        <path d="M719.22 141.65a44.79 44.79 0 1 0-85.09-28.01z" fill="#e73635"></path>
        <path d="M1321.45 551.32L1333.01 551.32L1333.01 562.88L1321.45 562.88z" fill="#d3b714"></path>
        <path d="M600.51 390.36L644.92 390.36L644.92 434.77L600.51 434.77z" stroke="#037b0b"></path>
        <path d="M1020.85 35.86 a13.99 13.99 0 1 0 27.98 0 a13.99 13.99 0 1 0 -27.98 0z" fill="#037b0b"></path>
        <path d="M1415.79 15.66L1420.19 15.66L1420.19 64.53L1415.79 64.53z" fill="#e73635"></path>
        <path d="M42.1 397.86L44.6 397.86L44.6 400.36L42.1 400.36z" fill="#d3b714"></path>
        <path d="M969.97 205.15a21.4 21.4 0 1 0 3.3 42.67z" stroke="#037b0b"></path>
        <path d="M405.4 182.2a37.87 37.87 0 1 0 74.84 11.6z" fill="#e73635"></path>
        <path d="M1042.36 48.01L1079.18 48.01L1079.18 84.95L1042.36 84.95z" fill="#d3b714"></path>
        <path d="M1202.05 330.49 a7.93 7.93 0 1 0 15.86 0 a7.93 7.93 0 1 0 -15.86 0z" fill="#d3b714"></path>
        <path d="M261.65 88.44a38.94 38.94 0 1 0 48.7-60.77z" stroke="#037b0b"></path>
        <path d="M851.76 129.79a33.63 33.63 0 1 0 35.01-57.43z" stroke="#e73635"></path>
        <path d="M706.78 494.12a27.46 27.46 0 1 0-27.53 47.52z" fill="#d3b714"></path>
        <path d="M1017.28 183.42 a52.71 52.71 0 1 0 105.42 0 a52.71 52.71 0 1 0 -105.42 0z" fill="#d3b714"></path>
        <path d="M965.98 482.48L1017.81 482.48L1017.81 534.31L965.98 534.31z" fill="#037b0b"></path>
        <path d="M403.63 458.88L411.92 458.88L411.92 467.17L403.63 467.17z" fill="#e73635"></path>
        <path d="M448.54 379.93L453.32 379.93L453.32 384.71L448.54 384.71z" stroke="#037b0b"></path>
        <path d="M452.16 384.62 a48.34 48.34 0 1 0 96.68 0 a48.34 48.34 0 1 0 -96.68 0z" fill="#d3b714"></path>
        <path d="M1349.62 144.37 a41.14 41.14 0 1 0 82.28 0 a41.14 41.14 0 1 0 -82.28 0z" fill="#d3b714"></path>
        <path d="M74.39 525.8a36.6 36.6 0 1 0 49.7 53.74z" fill="#d3b714"></path>
    </g>
    <defs>
        <mask id="SvgjsMask1008">
            <rect width="1440" height="560" fill="#ffffff"></rect>
        </mask>
    </defs>
</svg>