<svg width="35" height="35" viewBox="0 0 35 35" fill="none" xmlns="http://www.w3.org/2000/svg">
<g filter="url(#filter0_b_2038_2777)">
<circle r="17.5" transform="matrix(-1 0 0 1 17.5 17.5)" fill="white" fill-opacity="0.2"/>
</g>
<mask id="path-2-inside-1_2038_2777" fill="white">
<path d="M27.4141 19.2638H26.7766L24.7349 14.3254C25.0208 14.2865 25.2413 14.0421 25.2413 13.7455C25.2413 13.4219 24.979 13.1596 24.6554 13.1596H19.6177C19.3769 12.4908 18.7363 12.0112 17.9856 12.0112C17.2349 12.0112 16.5942 12.4908 16.3534 13.1596H11.3446C11.0211 13.1596 10.7587 13.4219 10.7587 13.7455C10.7587 14.0421 10.9793 14.2865 11.2651 14.3254L9.22344 19.2638H8.58594C8.26234 19.2638 8 19.5262 8 19.8497C8 22.1319 9.85668 23.9886 12.1388 23.9886C14.421 23.9886 16.2777 22.1319 16.2777 19.8497C16.2777 19.5262 16.0153 19.2638 15.6917 19.2638H15.0542L13.015 14.3314H16.3534C16.5942 15.0002 17.2348 15.4797 17.9856 15.4797C18.7363 15.4797 19.3769 15.0002 19.6177 14.3314H22.985L20.9459 19.2638H20.3083C19.9847 19.2638 19.7224 19.5262 19.7224 19.8497C19.7224 22.1319 21.5791 23.9886 23.8612 23.9886C26.1434 23.9886 28 22.1319 28 19.8497C28 19.5262 27.7377 19.2638 27.4141 19.2638ZM12.1388 22.8167C10.7033 22.8167 9.5027 21.7921 9.22996 20.4357H15.0477C14.775 21.7921 13.5743 22.8167 12.1388 22.8167ZM13.7861 19.2638H10.4915L12.1388 15.2793L13.7861 19.2638ZM17.9855 14.3079C17.6754 14.3079 17.4232 14.0556 17.4232 13.7455C17.4232 13.4354 17.6754 13.1831 17.9855 13.1831C18.2956 13.1831 18.5479 13.4354 18.5479 13.7455C18.5479 14.0556 18.2957 14.3079 17.9855 14.3079ZM23.8612 15.2793L25.5085 19.2638H22.2139L23.8612 15.2793ZM23.8612 22.8167C22.4257 22.8167 21.225 21.7921 20.9523 20.4357H26.77C26.4973 21.7921 25.2966 22.8167 23.8612 22.8167Z"/>
</mask>
<path d="M27.4141 19.2638H26.7766L24.7349 14.3254C25.0208 14.2865 25.2413 14.0421 25.2413 13.7455C25.2413 13.4219 24.979 13.1596 24.6554 13.1596H19.6177C19.3769 12.4908 18.7363 12.0112 17.9856 12.0112C17.2349 12.0112 16.5942 12.4908 16.3534 13.1596H11.3446C11.0211 13.1596 10.7587 13.4219 10.7587 13.7455C10.7587 14.0421 10.9793 14.2865 11.2651 14.3254L9.22344 19.2638H8.58594C8.26234 19.2638 8 19.5262 8 19.8497C8 22.1319 9.85668 23.9886 12.1388 23.9886C14.421 23.9886 16.2777 22.1319 16.2777 19.8497C16.2777 19.5262 16.0153 19.2638 15.6917 19.2638H15.0542L13.015 14.3314H16.3534C16.5942 15.0002 17.2348 15.4797 17.9856 15.4797C18.7363 15.4797 19.3769 15.0002 19.6177 14.3314H22.985L20.9459 19.2638H20.3083C19.9847 19.2638 19.7224 19.5262 19.7224 19.8497C19.7224 22.1319 21.5791 23.9886 23.8612 23.9886C26.1434 23.9886 28 22.1319 28 19.8497C28 19.5262 27.7377 19.2638 27.4141 19.2638ZM12.1388 22.8167C10.7033 22.8167 9.5027 21.7921 9.22996 20.4357H15.0477C14.775 21.7921 13.5743 22.8167 12.1388 22.8167ZM13.7861 19.2638H10.4915L12.1388 15.2793L13.7861 19.2638ZM17.9855 14.3079C17.6754 14.3079 17.4232 14.0556 17.4232 13.7455C17.4232 13.4354 17.6754 13.1831 17.9855 13.1831C18.2956 13.1831 18.5479 13.4354 18.5479 13.7455C18.5479 14.0556 18.2957 14.3079 17.9855 14.3079ZM23.8612 15.2793L25.5085 19.2638H22.2139L23.8612 15.2793ZM23.8612 22.8167C22.4257 22.8167 21.225 21.7921 20.9523 20.4357H26.77C26.4973 21.7921 25.2966 22.8167 23.8612 22.8167Z" fill="#5D6C7B"/>
<path d="M26.7766 19.2638L23.08 20.792L24.1019 23.2638H26.7766V19.2638ZM24.7349 14.3254L24.1956 10.3619L19.0571 11.0612L21.0384 15.8536L24.7349 14.3254ZM19.6177 13.1596L15.8543 14.5147L16.8067 17.1596H19.6177V13.1596ZM16.3534 13.1596V17.1596H19.1644L20.1168 14.5148L16.3534 13.1596ZM11.2651 14.3254L14.9617 15.8537L16.943 11.0613L11.8046 10.362L11.2651 14.3254ZM9.22344 19.2638V23.2638H11.8981L12.92 20.7921L9.22344 19.2638ZM15.0542 19.2638L11.3576 20.792L12.3795 23.2638H15.0542V19.2638ZM13.015 14.3314V10.3314H7.03301L9.31848 15.8597L13.015 14.3314ZM16.3534 14.3314L20.1168 12.9763L19.1645 10.3314H16.3534V14.3314ZM19.6177 14.3314V10.3314H16.8067L15.8543 12.9763L19.6177 14.3314ZM22.985 14.3314L26.6816 15.8597L28.967 10.3314H22.985V14.3314ZM20.9459 19.2638V23.2638H23.6205L24.6424 20.792L20.9459 19.2638ZM9.22996 20.4357V16.4357H4.34559L5.30845 21.2242L9.22996 20.4357ZM15.0477 20.4357L18.9692 21.2242L19.9321 16.4357H15.0477V20.4357ZM13.7861 19.2638V23.2638H19.7682L17.4827 17.7356L13.7861 19.2638ZM10.4915 19.2638L6.79498 17.7356L4.50946 23.2638H10.4915V19.2638ZM12.1388 15.2793L15.8354 13.751L12.1388 4.80975L8.44228 13.751L12.1388 15.2793ZM23.8612 15.2793L27.5577 13.751L23.8612 4.80975L20.1646 13.751L23.8612 15.2793ZM25.5085 19.2638V23.2638H31.4905L29.205 17.7356L25.5085 19.2638ZM22.2139 19.2638L18.5173 17.7356L16.2318 23.2638H22.2139V19.2638ZM20.9523 20.4357V16.4357H16.0679L17.0308 21.2242L20.9523 20.4357ZM26.77 20.4357L30.6915 21.2242L31.6544 16.4357H26.77V20.4357ZM27.4141 15.2638H26.7766V23.2638H27.4141V15.2638ZM30.4731 17.7356L28.4315 12.7972L21.0384 15.8536L23.08 20.792L30.4731 17.7356ZM25.2743 18.2889C27.5083 17.9849 29.2413 16.0772 29.2413 13.7455H21.2413C21.2413 12.0069 22.5334 10.5881 24.1956 10.3619L25.2743 18.2889ZM29.2413 13.7455C29.2413 11.2128 27.1881 9.15955 24.6554 9.15955V17.1596C22.7698 17.1596 21.2413 15.631 21.2413 13.7455H29.2413ZM24.6554 9.15955H19.6177V17.1596H24.6554V9.15955ZM23.3812 11.8044C22.5889 9.60401 20.4809 8.01123 17.9856 8.01123V16.0112C16.9916 16.0112 16.165 15.3775 15.8543 14.5147L23.3812 11.8044ZM17.9856 8.01123C15.4902 8.01123 13.3823 9.60405 12.59 11.8043L20.1168 14.5148C19.8061 15.3776 18.9795 16.0112 17.9856 16.0112V8.01123ZM16.3534 9.15955H11.3446V17.1596H16.3534V9.15955ZM11.3446 9.15955C8.81192 9.15955 6.75871 11.2128 6.75871 13.7455H14.7587C14.7587 15.631 13.2302 17.1596 11.3446 17.1596V9.15955ZM6.75871 13.7455C6.75871 16.0775 8.49204 17.9849 10.7257 18.2889L11.8046 10.362C13.4665 10.5881 14.7587 12.0066 14.7587 13.7455H6.75871ZM7.56858 12.7972L5.5269 17.7355L12.92 20.7921L14.9617 15.8537L7.56858 12.7972ZM9.22344 15.2638H8.58594V23.2638H9.22344V15.2638ZM8.58594 15.2638C6.0532 15.2638 4 17.317 4 19.8497H12C12 21.7353 10.4715 23.2638 8.58594 23.2638V15.2638ZM4 19.8497C4 24.341 7.64754 27.9886 12.1388 27.9886V19.9886C12.1151 19.9886 12.1011 19.9845 12.0898 19.9798C12.0758 19.9738 12.0586 19.9632 12.042 19.9465C12.0254 19.9299 12.0148 19.9128 12.0088 19.8987C12.004 19.8875 12 19.8734 12 19.8497H4ZM12.1388 27.9886C16.6301 27.9886 20.2777 24.341 20.2777 19.8497H12.2777C12.2777 19.8734 12.2736 19.8875 12.2688 19.8987C12.2629 19.9128 12.2522 19.9299 12.2356 19.9465C12.219 19.9632 12.2018 19.9738 12.1878 19.9798C12.1765 19.9845 12.1625 19.9886 12.1388 19.9886V27.9886ZM20.2777 19.8497C20.2777 17.317 18.2245 15.2638 15.6917 15.2638V23.2638C13.8062 23.2638 12.2777 21.7353 12.2777 19.8497H20.2777ZM15.6917 15.2638H15.0542V23.2638H15.6917V15.2638ZM18.7507 17.7356L16.7116 12.8032L9.31848 15.8597L11.3576 20.792L18.7507 17.7356ZM13.015 18.3314H16.3534V10.3314H13.015V18.3314ZM12.5899 15.6866C13.3823 17.887 15.4902 19.4797 17.9856 19.4797V11.4797C18.9795 11.4797 19.8061 12.1134 20.1168 12.9763L12.5899 15.6866ZM17.9856 19.4797C20.4809 19.4797 22.5889 17.887 23.3812 15.6866L15.8543 12.9763C16.165 12.1135 16.9916 11.4797 17.9856 11.4797V19.4797ZM19.6177 18.3314H22.985V10.3314H19.6177V18.3314ZM19.2884 12.8032L17.2493 17.7356L24.6424 20.792L26.6816 15.8597L19.2884 12.8032ZM20.9459 15.2638H20.3083V23.2638H20.9459V15.2638ZM20.3083 15.2638C17.7756 15.2638 15.7224 17.317 15.7224 19.8497H23.7224C23.7224 21.7353 22.1939 23.2638 20.3083 23.2638V15.2638ZM15.7224 19.8497C15.7224 24.341 19.3699 27.9886 23.8612 27.9886V19.9886C23.8375 19.9886 23.8235 19.9845 23.8122 19.9798C23.7982 19.9738 23.781 19.9632 23.7644 19.9465C23.7478 19.9299 23.7371 19.9128 23.7312 19.8987C23.7264 19.8875 23.7224 19.8734 23.7224 19.8497H15.7224ZM23.8612 27.9886C28.3525 27.9886 32 24.341 32 19.8497H24C24 19.8734 23.996 19.8875 23.9912 19.8988C23.9852 19.9128 23.9746 19.9299 23.958 19.9466C23.9414 19.9632 23.9242 19.9738 23.9102 19.9798C23.8989 19.9845 23.8849 19.9886 23.8612 19.9886V27.9886ZM32 19.8497C32 17.317 29.9468 15.2638 27.4141 15.2638V23.2638C25.5285 23.2638 24 21.7353 24 19.8497H32ZM12.1388 18.8167C12.6486 18.8167 13.0566 19.1753 13.1515 19.6472L5.30845 21.2242C5.9488 24.4088 8.75808 26.8167 12.1388 26.8167V18.8167ZM9.22996 24.4357H15.0477V16.4357H9.22996V24.4357ZM11.1262 19.6472C11.2211 19.1753 11.6291 18.8167 12.1388 18.8167V26.8167C15.5196 26.8167 18.3289 24.4088 18.9692 21.2242L11.1262 19.6472ZM13.7861 15.2638H10.4915V23.2638H13.7861V15.2638ZM14.1881 20.7921L15.8354 16.8075L8.44228 13.751L6.79498 17.7356L14.1881 20.7921ZM8.44228 16.8075L10.0896 20.7921L17.4827 17.7356L15.8354 13.751L8.44228 16.8075ZM17.9855 10.3079C19.8846 10.3079 21.4232 11.8465 21.4232 13.7455H13.4232C13.4232 16.2647 15.4663 18.3079 17.9855 18.3079V10.3079ZM21.4232 13.7455C21.4232 15.6445 19.8846 17.1831 17.9855 17.1831V9.18311C15.4663 9.18311 13.4232 11.2262 13.4232 13.7455H21.4232ZM17.9855 17.1831C16.0867 17.1831 14.5479 15.6447 14.5479 13.7455H22.5479C22.5479 11.2261 20.5046 9.18311 17.9855 9.18311V17.1831ZM14.5479 13.7455C14.5479 11.8465 16.0865 10.3079 17.9855 10.3079V18.3079C20.5048 18.3079 22.5479 16.2647 22.5479 13.7455H14.5479ZM20.1646 16.8075L21.8119 20.7921L29.205 17.7356L27.5577 13.751L20.1646 16.8075ZM25.5085 15.2638H22.2139V23.2638H25.5085V15.2638ZM25.9104 20.7921L27.5577 16.8075L20.1646 13.751L18.5173 17.7356L25.9104 20.7921ZM23.8612 18.8167C24.3709 18.8167 24.7789 19.1753 24.8738 19.6472L17.0308 21.2242C17.6711 24.4088 20.4804 26.8167 23.8612 26.8167V18.8167ZM20.9523 24.4357H26.77V16.4357H20.9523V24.4357ZM22.8485 19.6472C22.9434 19.1753 23.3514 18.8167 23.8612 18.8167V26.8167C27.2418 26.8167 30.0512 24.4088 30.6915 21.2242L22.8485 19.6472Z" fill="#5D6C7B" mask="url(#path-2-inside-1_2038_2777)"/>
<defs>
<filter id="filter0_b_2038_2777" x="-5" y="-5" width="45" height="45" filterUnits="userSpaceOnUse" color-interpolation-filters="sRGB">
<feFlood flood-opacity="0" result="BackgroundImageFix"/>
<feGaussianBlur in="BackgroundImage" stdDeviation="2.5"/>
<feComposite in2="SourceAlpha" operator="in" result="effect1_backgroundBlur_2038_2777"/>
<feBlend mode="normal" in="SourceGraphic" in2="effect1_backgroundBlur_2038_2777" result="shape"/>
</filter>
</defs>
</svg>
