<svg width="134" height="85" viewBox="0 0 134 85" fill="none" xmlns="http://www.w3.org/2000/svg">
<path d="M67 85C104.003 85 134 78.5026 134 70.4878C134 62.4729 104.003 55.9756 67 55.9756C29.9969 55.9756 0 62.4729 0 70.4878C0 78.5026 29.9969 85 67 85Z" fill="white"/>
<path d="M115.156 28.5269L93.9131 4.68129C92.8934 3.05593 91.4048 2.07324 89.8365 2.07324H44.1635C42.5953 2.07324 41.1066 3.05593 40.0869 4.67922L18.8438 28.529V47.683H115.156V28.5269Z" stroke="#EAEBED"/>
<path d="M87.1272 35.1009C87.1272 31.7734 89.2084 29.0265 91.79 29.0244H115.156V66.6255C115.156 71.0268 112.393 74.6342 108.98 74.6342H25.0203C21.6075 74.6342 18.8438 71.0248 18.8438 66.6255V29.0244H42.21C44.7916 29.0244 46.8728 31.7672 46.8728 35.0947V35.1403C46.8728 38.4677 48.977 41.1545 51.5565 41.1545H82.4435C85.023 41.1545 87.1272 38.4428 87.1272 35.1154V35.1009Z" fill="white" stroke="#EAEBED"/>
</svg>
